<svg width="276" height="56" viewBox="0 0 276 56" fill="none" xmlns="http://www.w3.org/2000/svg">
<g clip-path="url(#clip0_62_4764)">
<path d="M184.393 7.94805L190.084 0.0501308H158.687L156.036 3.79224L152.989 7.94178H156.036V16.3474C154.5 13.7587 150.388 12.2418 145.687 12.0725L141.186 18.278H144.697C146.934 18.278 147.943 18.9174 147.943 20.4719C147.943 22.0264 146.941 22.7096 144.697 22.7096H112.779L106.705 30.5699H143.963C150.526 30.5699 154.35 28.7083 156.036 25.4238V30.4258H165.476V19.306H176.2L181.535 11.9033H165.476V7.95432H184.387L184.393 7.94805Z" fill="#EE224F"/>
<path d="M135.808 18.2781L140.208 12.1979H139.412L135.006 18.2781H135.808Z" fill="#808184"/>
<path d="M137.112 18.2781L141.519 12.1979H140.716L136.31 18.2781H137.112Z" fill="#808184"/>
<path d="M138.41 18.2781L142.816 12.1979H142.014L137.607 18.2781H138.41Z" fill="#808184"/>
<path d="M128.982 7.94806H150.476L156.255 0H129.709C123.441 0 119.661 1.71122 117.862 4.60085C114.678 2.12492 110.265 0.683233 105.157 0.683233H90.7274L85.1111 8.46832H105.163C110.178 8.46832 114.026 11.5585 114.026 15.7645C114.026 19.9704 110.309 22.9228 105.163 22.9228H94.4194V11.9597H85.1111V30.6201H105.163C114.609 30.6201 121.793 25.173 123.015 17.6575C124.45 18.0587 126.13 18.278 128.073 18.278H134.511L138.942 12.2042H128.988C126.795 12.2042 125.742 11.6087 125.742 10.0542C125.742 8.49966 126.795 7.95433 128.988 7.95433L128.982 7.94806Z" fill="#808184"/>
<path d="M88.6088 44.711H85.1613V41.5017H86.7596V43.3884H88.6088C89.4926 43.3884 90.1319 42.8932 90.1319 42.1599C90.1319 41.4265 89.4675 40.9062 88.6088 40.9062H85.1613L86.1767 39.5648H88.6088C90.4077 39.5648 91.7115 40.6053 91.7115 42.0909C91.7115 43.5765 90.3952 44.7173 88.6088 44.7173V44.711Z" fill="#808184"/>
<path d="M94.131 44.711H92.5389V39.5648H94.131V44.711Z" fill="#808184"/>
<path d="M99.39 43.3947H96.6947V44.711H95.1089V42.0784H99.5405C100.036 42.0784 100.318 41.8402 100.318 41.4829C100.318 41.1256 100.036 40.9 99.5405 40.9H95.1089L96.1619 39.5586H99.3963C100.988 39.5586 101.922 40.3421 101.922 41.4892C101.922 42.6362 100.988 43.3884 99.39 43.3884V43.3947Z" fill="#808184"/>
<path d="M110.09 42.1348C110.09 43.9714 108.83 44.7988 106.329 44.7988C103.828 44.7988 102.568 43.9776 102.568 42.1348C102.568 40.2919 103.822 39.4771 106.329 39.4771C108.836 39.4771 110.09 40.2919 110.09 42.1348ZM108.504 42.1348C108.504 41.0253 107.927 40.8185 106.329 40.8185C104.731 40.8185 104.154 41.0253 104.154 42.1348C104.154 43.2442 104.731 43.4574 106.329 43.4574C107.927 43.4574 108.504 43.2442 108.504 42.1348Z" fill="#808184"/>
<path d="M118.615 41.6145C119.868 41.6145 120.545 42.0846 120.545 43.0249C120.545 44.0779 119.906 44.711 118.339 44.711H113.544L114.565 43.3884H118.458C118.834 43.3884 119.003 43.2819 119.003 43.0123C119.003 42.7428 118.834 42.6425 118.458 42.6425H115.656C114.333 42.6425 113.725 42.047 113.725 41.1632C113.725 40.1916 114.371 39.5648 115.932 39.5648H120.401L119.379 40.9062H115.806C115.437 40.9062 115.261 41.0002 115.261 41.2572C115.261 41.5142 115.437 41.6208 115.806 41.6208H118.608L118.615 41.6145Z" fill="#808184"/>
<path d="M127.183 39.5648L126.149 40.9062H124.312V44.7173H122.72V40.9062H120.307L121.341 39.5648H127.189H127.183Z" fill="#808184"/>
<path d="M128.217 44.711L129.176 43.3884H130.468C130.775 43.3884 131.138 43.3884 131.383 43.4009C131.245 43.2192 131.032 42.8995 130.863 42.655L129.941 41.2948L127.528 44.711H125.641L128.945 40.0537C129.158 39.7529 129.477 39.4771 129.979 39.4771C130.48 39.4771 130.769 39.7341 130.994 40.0537L134.21 44.711H128.224H128.217Z" fill="#808184"/>
<path d="M142.076 44.711H139.945L138.798 43.3508H136.354V44.711H134.761V42.0784H139.237C139.732 42.0784 140.114 41.8527 140.114 41.5017C140.114 41.1005 139.782 40.9 139.237 40.9H134.761L135.802 39.5586H139.112C140.284 39.5586 141.757 39.9284 141.757 41.3951C141.757 42.1975 141.255 42.8556 140.409 43.0249C140.585 43.1565 140.779 43.3383 141.13 43.7018L142.076 44.7047V44.711Z" fill="#808184"/>
<path d="M151.36 39.5648L150.325 40.9062H147.185V41.5769H151.065L150.093 42.8306H147.185V44.7173H145.587V39.5711H151.36V39.5648Z" fill="#808184"/>
<path d="M153.516 44.711H151.924V39.5648H153.516V44.711Z" fill="#808184"/>
<path d="M159.082 44.5167L155.929 41.6835V44.7047H154.481V40.4361C154.481 39.7529 154.895 39.4771 155.352 39.4771C155.547 39.4771 155.735 39.5209 155.992 39.7529L159.145 42.5861V39.5648H160.599V43.8272C160.599 44.5104 160.185 44.7988 159.721 44.7988C159.521 44.7988 159.326 44.7549 159.082 44.523V44.5167Z" fill="#808184"/>
<path d="M163.501 44.711L164.46 43.3884H165.751C166.059 43.3884 166.422 43.3884 166.667 43.4009C166.529 43.2192 166.316 42.8995 166.146 42.655L165.225 41.2948L162.812 44.711H160.925L164.228 40.0537C164.441 39.7529 164.761 39.4771 165.262 39.4771C165.764 39.4771 166.052 39.7341 166.278 40.0537L169.493 44.711H163.507H163.501Z" fill="#808184"/>
<path d="M174.633 44.5167L171.48 41.6835V44.7047H170.033V40.4361C170.033 39.7529 170.446 39.4771 170.904 39.4771C171.098 39.4771 171.286 39.5209 171.543 39.7529L174.696 42.5861V39.5648H176.15V43.8272C176.15 44.5104 175.737 44.7988 175.273 44.7988C175.072 44.7988 174.878 44.7549 174.633 44.523V44.5167Z" fill="#808184"/>
<path d="M183.635 43.3884L182.613 44.711H180.03C178.244 44.711 176.928 43.5827 176.928 42.0846C176.928 40.5865 178.244 39.5586 180.03 39.5586H183.641L182.619 40.9H180.037C179.178 40.9 178.526 41.4139 178.526 42.1536C178.526 42.8932 179.165 43.3822 180.037 43.3822H183.647L183.635 43.3884Z" fill="#808184"/>
<path d="M190.166 43.3884L189.144 44.711H184.186V39.5648H190.147L189.113 40.9062H185.778V41.5205H189.859L188.944 42.6927H185.778V43.3947H190.153L190.166 43.3884Z" fill="#808184"/>
<path d="M99.9291 52.9161C99.8852 53.1981 99.904 53.4238 99.9855 53.5993C100.136 53.9252 100.493 54.0945 101.057 54.0945C101.308 54.0945 101.546 54.0569 101.772 53.9879C102.204 53.85 102.455 53.5993 102.53 53.242C102.587 52.9725 102.543 52.7782 102.399 52.6653C102.255 52.5525 102.004 52.4522 101.659 52.3707L101.02 52.2203C100.606 52.12 100.318 52.0134 100.161 51.8943C99.8915 51.6875 99.7975 51.3804 99.8852 50.9667C99.9793 50.5216 100.211 50.1581 100.581 49.8697C100.951 49.5814 101.415 49.4435 101.979 49.4435C102.499 49.4435 102.913 49.5688 103.22 49.8196C103.527 50.0703 103.627 50.4715 103.508 51.0231H102.875C102.9 50.7598 102.875 50.553 102.794 50.4151C102.643 50.1581 102.324 50.0264 101.835 50.0264C101.44 50.0264 101.139 50.1079 100.932 50.2772C100.725 50.4464 100.594 50.6344 100.55 50.8601C100.5 51.1046 100.562 51.2801 100.738 51.3929C100.857 51.4618 101.139 51.5559 101.584 51.6624L102.242 51.8191C102.562 51.8943 102.8 52.0009 102.95 52.1325C103.22 52.3645 103.308 52.7029 103.207 53.1417C103.088 53.6933 102.806 54.0819 102.355 54.3201C101.904 54.5583 101.415 54.6774 100.888 54.6774C100.274 54.6774 99.8226 54.5207 99.5405 54.2073C99.2584 53.8939 99.1769 53.4739 99.296 52.9349H99.9291V52.9161Z" fill="#808285"/>
<path d="M104.448 50.904H105.05L104.944 51.418C105.125 51.2424 105.282 51.1108 105.414 51.0293C105.646 50.8914 105.884 50.8225 106.141 50.8225C106.429 50.8225 106.649 50.8914 106.793 51.0356C106.874 51.1171 106.937 51.2362 106.987 51.3929C107.163 51.1986 107.357 51.0544 107.558 50.9604C107.758 50.8664 107.971 50.8225 108.203 50.8225C108.686 50.8225 108.98 50.998 109.081 51.349C109.137 51.5371 109.131 51.794 109.062 52.1137L108.554 54.5207H107.921L108.454 52.0134C108.504 51.7752 108.479 51.606 108.379 51.5182C108.278 51.4305 108.14 51.3866 107.965 51.3866C107.727 51.3866 107.507 51.4681 107.301 51.6248C107.094 51.7815 106.956 52.051 106.874 52.4209L106.429 54.5207H105.815L106.316 52.1639C106.367 51.9194 106.379 51.7376 106.341 51.6248C106.285 51.4556 106.128 51.3741 105.878 51.3741C105.646 51.3741 105.42 51.4618 105.194 51.6373C104.969 51.8128 104.806 52.1388 104.705 52.6026L104.298 54.5207H103.69L104.455 50.9102L104.448 50.904Z" fill="#808285"/>
<path d="M111.832 52.3268C111.977 52.308 112.083 52.2516 112.152 52.1513C112.19 52.0949 112.221 52.0197 112.24 51.9194C112.284 51.7126 112.24 51.5621 112.114 51.4681C111.989 51.3741 111.782 51.3302 111.513 51.3302C111.193 51.3302 110.955 51.418 110.786 51.5872C110.692 51.6812 110.616 51.8191 110.554 52.0072H109.99C110.096 51.5621 110.303 51.255 110.623 51.0795C110.936 50.904 111.281 50.8162 111.644 50.8162C112.071 50.8162 112.397 50.8977 112.628 51.0607C112.86 51.2236 112.936 51.4744 112.867 51.8191L112.422 53.9002C112.409 53.9628 112.409 54.013 112.422 54.0506C112.434 54.0882 112.491 54.107 112.572 54.107C112.597 54.107 112.628 54.107 112.666 54.107C112.704 54.107 112.741 54.1007 112.779 54.0945L112.679 54.5458C112.578 54.5708 112.503 54.5897 112.453 54.5959C112.403 54.6022 112.334 54.6085 112.246 54.6085C112.039 54.6085 111.901 54.5332 111.839 54.3828C111.807 54.3013 111.795 54.1948 111.807 54.0506C111.651 54.2136 111.438 54.3515 111.181 54.4706C110.924 54.5897 110.654 54.6523 110.378 54.6523C110.046 54.6523 109.789 54.552 109.62 54.3452C109.45 54.1446 109.4 53.8876 109.463 53.5805C109.532 53.2483 109.695 52.985 109.946 52.8032C110.196 52.6214 110.491 52.5023 110.842 52.4647L111.832 52.3456V52.3268ZM110.629 54.1195C110.842 54.1195 111.061 54.0694 111.281 53.9691C111.651 53.8061 111.876 53.5366 111.958 53.1605L112.058 52.6716C111.977 52.7217 111.87 52.7593 111.745 52.7907C111.619 52.822 111.5 52.8471 111.387 52.8596L111.011 52.9098C110.786 52.9411 110.61 52.985 110.485 53.0477C110.278 53.1542 110.146 53.3235 110.096 53.5554C110.059 53.7309 110.096 53.8688 110.196 53.9691C110.303 54.0694 110.447 54.1195 110.623 54.1195H110.629Z" fill="#808285"/>
<path d="M114.058 50.904H114.634L114.503 51.5308C114.572 51.4117 114.722 51.2613 114.941 51.0857C115.161 50.9102 115.393 50.8225 115.637 50.8225C115.65 50.8225 115.669 50.8225 115.694 50.8225C115.719 50.8225 115.763 50.8287 115.832 50.835L115.694 51.4744C115.656 51.4681 115.625 51.4618 115.593 51.4618C115.562 51.4618 115.531 51.4618 115.493 51.4618C115.186 51.4618 114.929 51.5621 114.728 51.7564C114.528 51.9508 114.39 52.1827 114.333 52.4334L113.895 54.5082H113.287L114.051 50.8977L114.058 50.904Z" fill="#808285"/>
<path d="M116.678 49.8948H117.292L117.079 50.904H117.656L117.549 51.3992H116.972L116.471 53.756C116.446 53.8814 116.471 53.9691 116.546 54.0067C116.59 54.0318 116.665 54.0443 116.778 54.0443C116.809 54.0443 116.841 54.0443 116.872 54.0443C116.903 54.0443 116.947 54.0443 116.991 54.0381L116.891 54.5144C116.816 54.5332 116.74 54.5521 116.665 54.5583C116.59 54.5709 116.502 54.5709 116.414 54.5709C116.132 54.5709 115.957 54.4956 115.882 54.3515C115.806 54.2073 115.8 54.0193 115.85 53.7873L116.358 51.3929H115.869L115.976 50.8977H116.465L116.678 49.8885V49.8948Z" fill="#808285"/>
<path d="M120.877 49.5626L120.953 53.593L122.927 49.5626H123.654L123.917 53.593L125.71 49.5626H126.444L124.087 54.5144H123.385L123.109 50.4088L121.091 54.5144H120.388L120.144 49.5626H120.871H120.877Z" fill="#808285"/>
<path d="M128.08 52.3268C128.224 52.308 128.33 52.2516 128.399 52.1513C128.437 52.0949 128.468 52.0197 128.487 51.9194C128.531 51.7126 128.487 51.5621 128.362 51.4681C128.236 51.3741 128.029 51.3302 127.76 51.3302C127.44 51.3302 127.202 51.418 127.033 51.5872C126.939 51.6812 126.864 51.8191 126.801 52.0072H126.237C126.343 51.5621 126.55 51.255 126.87 51.0795C127.183 50.904 127.528 50.8162 127.892 50.8162C128.318 50.8162 128.644 50.8977 128.876 51.0607C129.108 51.2236 129.183 51.4744 129.114 51.8191L128.669 53.9002C128.656 53.9628 128.656 54.013 128.669 54.0506C128.681 54.0882 128.738 54.107 128.819 54.107C128.844 54.107 128.876 54.107 128.913 54.107C128.951 54.107 128.988 54.1007 129.026 54.0945L128.926 54.5458C128.825 54.5708 128.75 54.5897 128.7 54.5959C128.65 54.6022 128.581 54.6085 128.493 54.6085C128.286 54.6085 128.148 54.5332 128.086 54.3828C128.054 54.3013 128.042 54.1948 128.054 54.0506C127.898 54.2136 127.685 54.3515 127.428 54.4706C127.171 54.5897 126.901 54.6523 126.625 54.6523C126.293 54.6523 126.036 54.552 125.867 54.3452C125.698 54.1446 125.647 53.8876 125.71 53.5805C125.779 53.2483 125.942 52.985 126.193 52.8032C126.444 52.6214 126.738 52.5023 127.089 52.4647L128.08 52.3456V52.3268ZM126.876 54.1195C127.089 54.1195 127.309 54.0694 127.528 53.9691C127.898 53.8061 128.123 53.5366 128.205 53.1605L128.305 52.6716C128.224 52.7217 128.117 52.7593 127.992 52.7907C127.866 52.822 127.747 52.8471 127.635 52.8596L127.258 52.9098C127.033 52.9411 126.857 52.985 126.732 53.0477C126.525 53.1542 126.393 53.3235 126.343 53.5554C126.306 53.7309 126.343 53.8688 126.444 53.9691C126.55 54.0694 126.694 54.1195 126.87 54.1195H126.876Z" fill="#808285"/>
<path d="M132.549 50.904H133.219C133.082 51.1359 132.781 51.6624 132.311 52.4898C131.96 53.1104 131.671 53.6181 131.439 54.0067C130.888 54.9281 130.524 55.4923 130.336 55.6929C130.148 55.8934 129.879 55.9937 129.527 55.9937C129.44 55.9937 129.377 55.9937 129.333 55.9812C129.289 55.9749 129.233 55.9624 129.17 55.9436L129.289 55.392C129.39 55.4233 129.459 55.4421 129.509 55.4484C129.553 55.4547 129.596 55.4609 129.634 55.4609C129.747 55.4609 129.835 55.4421 129.891 55.4045C129.954 55.3669 130.004 55.323 130.054 55.2666C130.067 55.2478 130.129 55.1538 130.236 54.9908C130.342 54.8279 130.418 54.7025 130.468 54.621L129.922 50.904H130.612L130.957 53.8437L132.555 50.904H132.549Z" fill="#808285"/>
<path d="M136.184 49.8008C136.366 49.5939 136.661 49.4874 137.068 49.4874C137.106 49.4874 137.143 49.4874 137.187 49.4874C137.225 49.4874 137.275 49.4874 137.325 49.4999L137.206 50.0515C137.143 50.0515 137.099 50.0452 137.074 50.0452C137.049 50.0452 137.018 50.0452 136.993 50.0452C136.811 50.0452 136.686 50.0954 136.629 50.1894C136.573 50.2834 136.504 50.5279 136.422 50.9165H137.024L136.924 51.3929H136.316L135.658 54.5082H135.056L135.714 51.3929H135.213L135.313 50.9165H135.814L135.934 50.3524C135.996 50.1016 136.078 49.9136 136.184 49.8008Z" fill="#808285"/>
<path d="M140.334 52.634C140.208 53.2169 139.964 53.6996 139.6 54.0757C139.237 54.458 138.754 54.6461 138.159 54.6461C137.664 54.6461 137.3 54.4768 137.081 54.1446C136.861 53.8061 136.811 53.3548 136.93 52.7907C137.062 52.1827 137.319 51.7 137.701 51.3427C138.084 50.9855 138.535 50.8037 139.055 50.8037C139.519 50.8037 139.883 50.9604 140.133 51.2675C140.39 51.5747 140.453 52.0322 140.321 52.634H140.334ZM139.701 52.6528C139.77 52.3143 139.776 52.0385 139.713 51.8317C139.613 51.4994 139.35 51.3302 138.936 51.3302C138.566 51.3302 138.265 51.4744 138.04 51.7564C137.814 52.0385 137.657 52.3833 137.57 52.7844C137.488 53.1668 137.507 53.4865 137.62 53.7435C137.733 54.0005 137.971 54.1258 138.341 54.1258C138.742 54.1258 139.049 53.9754 139.268 53.6682C139.488 53.3611 139.632 53.0226 139.707 52.6528H139.701Z" fill="#808285"/>
<path d="M141.443 50.904H142.02L141.888 51.5308C141.957 51.4117 142.108 51.2613 142.327 51.0857C142.547 50.9102 142.778 50.8225 143.023 50.8225C143.035 50.8225 143.054 50.8225 143.079 50.8225C143.104 50.8225 143.148 50.8287 143.217 50.835L143.079 51.4744C143.042 51.4681 143.01 51.4618 142.979 51.4618C142.948 51.4618 142.916 51.4618 142.879 51.4618C142.572 51.4618 142.315 51.5621 142.114 51.7564C141.913 51.9508 141.776 52.1827 141.719 52.4334L141.28 54.5082H140.672L141.437 50.8977L141.443 50.904Z" fill="#808285"/>
<path d="M145.994 49.5626H148.125C148.708 49.5626 149.078 49.7381 149.253 50.0828C149.354 50.2897 149.379 50.5216 149.316 50.7911C149.253 51.1046 149.109 51.3615 148.89 51.5621C148.777 51.6687 148.62 51.7627 148.432 51.8505C148.664 51.9445 148.834 52.0573 148.934 52.1764C149.109 52.3895 149.159 52.6904 149.078 53.0728C149.009 53.3924 148.846 53.6808 148.595 53.9378C148.213 54.3264 147.699 54.5207 147.047 54.5207H144.954L146.007 49.5688L145.994 49.5626ZM147.172 53.944C147.586 53.944 147.9 53.8249 148.125 53.5868C148.269 53.4363 148.363 53.2545 148.407 53.0414C148.482 52.6841 148.376 52.4397 148.081 52.308C147.925 52.2391 147.705 52.2015 147.429 52.2015H146.094L145.724 53.944H147.172ZM147.429 51.6562C147.712 51.6562 147.943 51.6185 148.113 51.5371C148.388 51.4117 148.558 51.1923 148.627 50.8664C148.696 50.5404 148.614 50.3273 148.376 50.2145C148.238 50.1518 148.025 50.1204 147.73 50.1204H146.533L146.207 51.6562H147.429Z" fill="#808285"/>
<path d="M152.933 51.4681C153.014 51.6499 153.052 51.863 153.039 52.1074C153.039 52.2767 153.002 52.54 152.927 52.9035H150.281C150.213 53.2671 150.238 53.5617 150.357 53.7873C150.47 54.0067 150.701 54.1195 151.04 54.1195C151.36 54.1195 151.629 54.013 151.861 53.8061C151.999 53.687 152.106 53.5429 152.181 53.3862H152.776C152.732 53.5178 152.645 53.6682 152.525 53.8312C152.4 53.9942 152.275 54.1258 152.143 54.2324C151.917 54.4141 151.667 54.5332 151.378 54.5959C151.222 54.6335 151.052 54.6523 150.871 54.6523C150.419 54.6523 150.075 54.4894 149.83 54.1634C149.586 53.8375 149.529 53.3799 149.655 52.7907C149.78 52.2077 150.037 51.7376 150.426 51.3803C150.814 51.0168 151.266 50.835 151.773 50.835C152.03 50.835 152.268 50.8977 152.482 51.0168C152.695 51.1359 152.845 51.2926 152.933 51.4869V51.4681ZM152.4 52.4209C152.431 52.1576 152.419 51.9445 152.363 51.7878C152.262 51.4932 152.011 51.349 151.623 51.349C151.347 51.349 151.09 51.4493 150.858 51.6499C150.626 51.8505 150.47 52.1075 150.394 52.4146H152.4V52.4209Z" fill="#808285"/>
<path d="M154.431 49.8948H155.045L154.832 50.904H155.409L155.302 51.3992H154.726L154.224 53.756C154.199 53.8814 154.224 53.9691 154.299 54.0067C154.343 54.0318 154.418 54.0443 154.531 54.0443C154.563 54.0443 154.594 54.0443 154.625 54.0443C154.657 54.0443 154.701 54.0443 154.744 54.0381L154.644 54.5144C154.569 54.5332 154.494 54.5521 154.418 54.5583C154.343 54.5709 154.255 54.5709 154.168 54.5709C153.886 54.5709 153.71 54.4956 153.635 54.3515C153.56 54.2073 153.553 54.0193 153.604 53.7873L154.111 51.3929H153.622L153.729 50.8977H154.218L154.431 49.8885V49.8948Z" fill="#808285"/>
<path d="M156.355 49.8948H156.97L156.757 50.904H157.333L157.227 51.3992H156.65L156.149 53.756C156.123 53.8814 156.148 53.9691 156.224 54.0067C156.268 54.0318 156.343 54.0443 156.456 54.0443C156.487 54.0443 156.518 54.0443 156.55 54.0443C156.581 54.0443 156.625 54.0443 156.669 54.0381L156.568 54.5144C156.493 54.5332 156.418 54.5521 156.343 54.5583C156.268 54.5709 156.18 54.5709 156.092 54.5709C155.81 54.5709 155.635 54.4956 155.559 54.3515C155.484 54.2073 155.478 54.0193 155.528 53.7873L156.036 51.3929H155.547L155.653 50.8977H156.142L156.355 49.8885V49.8948Z" fill="#808285"/>
<path d="M160.611 51.4681C160.693 51.6499 160.731 51.863 160.718 52.1074C160.718 52.2767 160.68 52.54 160.605 52.9035H157.96C157.891 53.2671 157.916 53.5617 158.035 53.7873C158.148 54.0067 158.38 54.1195 158.718 54.1195C159.038 54.1195 159.308 54.013 159.54 53.8061C159.677 53.687 159.784 53.5429 159.859 53.3862H160.455C160.411 53.5178 160.323 53.6682 160.204 53.8312C160.079 53.9942 159.953 54.1258 159.822 54.2324C159.596 54.4141 159.345 54.5332 159.057 54.5959C158.9 54.6335 158.731 54.6523 158.549 54.6523C158.098 54.6523 157.753 54.4894 157.509 54.1634C157.264 53.8375 157.208 53.3799 157.333 52.7907C157.459 52.2077 157.716 51.7376 158.104 51.3803C158.493 51.0168 158.944 50.835 159.452 50.835C159.709 50.835 159.947 50.8977 160.16 51.0168C160.373 51.1359 160.524 51.2926 160.611 51.4869V51.4681ZM160.085 52.4209C160.116 52.1576 160.104 51.9445 160.047 51.7878C159.947 51.4932 159.696 51.349 159.308 51.349C159.032 51.349 158.775 51.4493 158.543 51.6499C158.311 51.8505 158.154 52.1075 158.079 52.4146H160.085V52.4209Z" fill="#808285"/>
<path d="M161.796 50.904H162.373L162.241 51.5308C162.31 51.4117 162.461 51.2613 162.68 51.0857C162.899 50.9102 163.131 50.8225 163.376 50.8225C163.388 50.8225 163.407 50.8225 163.432 50.8225C163.457 50.8225 163.501 50.8287 163.57 50.835L163.432 51.4744C163.395 51.4681 163.363 51.4618 163.332 51.4618C163.3 51.4618 163.269 51.4618 163.232 51.4618C162.924 51.4618 162.667 51.5621 162.467 51.7564C162.266 51.9508 162.128 52.1827 162.072 52.4334L161.633 54.5082H161.025L161.79 50.8977L161.796 50.904Z" fill="#808285"/>
<path d="M166.366 49.5626H167.036L166.109 53.9252H168.616L168.491 54.5144H165.313L166.366 49.5626Z" fill="#808285"/>
<path d="M169.832 50.9228H170.453L169.688 54.5207H169.074L169.838 50.9228H169.832ZM170.127 49.5626H170.741L170.59 50.2521H169.97L170.12 49.5626H170.127Z" fill="#808285"/>
<path d="M171.894 49.8008C172.076 49.5939 172.371 49.4874 172.778 49.4874C172.816 49.4874 172.853 49.4874 172.897 49.4874C172.935 49.4874 172.985 49.4874 173.035 49.4999L172.916 50.0515C172.853 50.0515 172.809 50.0452 172.784 50.0452C172.759 50.0452 172.728 50.0452 172.703 50.0452C172.521 50.0452 172.396 50.0954 172.339 50.1894C172.283 50.2834 172.214 50.5279 172.132 50.9165H172.734L172.634 51.3929H172.026L171.368 54.5082H170.766L171.424 51.3929H170.923L171.023 50.9165H171.524L171.643 50.3524C171.706 50.1016 171.788 49.9136 171.894 49.8008Z" fill="#808285"/>
<path d="M175.969 51.4681C176.05 51.6499 176.088 51.863 176.075 52.1074C176.075 52.2767 176.037 52.54 175.962 52.9035H173.317C173.248 53.2671 173.273 53.5617 173.392 53.7873C173.505 54.0067 173.737 54.1195 174.076 54.1195C174.395 54.1195 174.665 54.013 174.897 53.8061C175.035 53.687 175.141 53.5429 175.216 53.3862H175.812C175.768 53.5178 175.68 53.6682 175.561 53.8312C175.436 53.9942 175.31 54.1258 175.179 54.2324C174.953 54.4141 174.702 54.5332 174.414 54.5959C174.257 54.6335 174.088 54.6523 173.906 54.6523C173.455 54.6523 173.11 54.4894 172.866 54.1634C172.621 53.8375 172.565 53.3799 172.69 52.7907C172.816 52.2077 173.073 51.7376 173.461 51.3803C173.85 51.0168 174.301 50.835 174.809 50.835C175.066 50.835 175.304 50.8977 175.517 51.0168C175.73 51.1359 175.881 51.2926 175.969 51.4869V51.4681ZM175.442 52.4209C175.473 52.1576 175.461 51.9445 175.404 51.7878C175.304 51.4932 175.053 51.349 174.665 51.349C174.389 51.349 174.132 51.4493 173.9 51.6499C173.668 51.8505 173.511 52.1075 173.436 52.4146H175.442V52.4209Z" fill="#808285"/>
</g>
<defs>
<clipPath id="clip0_62_4764">
<rect width="103.704" height="56" fill="white" transform="translate(86.1481)"/>
</clipPath>
</defs>
</svg>
