<svg width="279" height="24" viewBox="0 0 279 24" fill="none" xmlns="http://www.w3.org/2000/svg">
<g clip-path="url(#clip0_62_136)">
<path d="M77.8106 6.22879L82.2755 0.0373535H57.6685L55.5891 2.96965L53.1995 6.2236H55.5891V12.8114C54.3865 10.785 51.1637 9.59274 47.4781 9.46303L43.9523 14.3253H46.7019C48.4565 14.3253 49.2441 14.8265 49.2441 16.0446C49.2441 17.2628 48.4565 17.7992 46.7019 17.7992H21.6882L16.9255 23.9585H46.1281C51.2737 23.9585 54.2672 22.4996 55.588 19.9243V23.8433H62.9893V15.1253H71.3951L75.5777 9.32503H62.9893V6.22983H77.8096L77.8106 6.22879Z" fill="#ED264F"/>
<path d="M39.7323 14.3243L43.1844 9.56058H42.5567L39.1046 14.3243H39.7323Z" fill="#808184"/>
<path d="M40.7575 14.3243L44.2096 9.56058H43.5818L40.1297 14.3243H40.7575Z" fill="#808184"/>
<path d="M41.7722 14.3243L45.2244 9.56058H44.5966L41.1445 14.3243H41.7722Z" fill="#808184"/>
<path d="M34.3834 6.23087H51.2311L55.7613 0H34.9562C30.0441 0 27.0796 1.34267 25.6726 3.60467C23.1772 1.66433 19.7188 0.535408 15.7147 0.535408H4.40156L0 6.63761H15.7136C19.642 6.63761 22.6584 9.05837 22.6584 12.3549C22.6584 15.6514 19.7468 17.9673 15.7136 17.9673H7.29546V9.3738H0V24H15.7136C23.117 24 28.7471 19.7323 29.7038 13.8386C30.8265 14.1541 32.1442 14.3232 33.6664 14.3232H38.7123L42.1831 9.56057H34.3824C32.663 9.56057 31.8402 9.09468 31.8402 7.87756C31.8402 6.66044 32.6641 6.22983 34.3824 6.22983L34.3834 6.23087Z" fill="#808184"/>
<path d="M135.862 18.6158C136.662 18.6158 137.093 19.0091 137.093 19.7966C137.093 20.6807 136.686 21.2098 135.685 21.2098H132.629L133.281 20.0996H135.763C136.004 20.0996 136.112 20.0093 136.112 19.7831C136.112 19.5569 136.004 19.4729 135.763 19.4729H133.978C133.134 19.4729 132.746 18.9759 132.746 18.234C132.746 17.4205 133.158 16.8913 134.154 16.8913H137.003L136.351 18.014H134.074C133.839 18.014 133.726 18.0918 133.726 18.3108C133.726 18.5297 133.839 18.6137 134.074 18.6137H135.86L135.862 18.6158Z" fill="#808184"/>
<path d="M139.762 18.4996C140.052 19.1647 140.179 19.4874 140.293 19.7904C140.4 19.4874 140.528 19.1709 140.818 18.5058L141.343 17.2794C141.46 17.0023 141.637 16.8207 141.902 16.8207C142.167 16.8207 142.382 17.0148 142.471 17.4143L143.3 21.2098H142.289L141.98 19.7063C141.877 19.2156 141.809 18.8669 141.755 18.5183C141.647 18.8213 141.524 19.1512 141.298 19.7126L140.857 20.7969C140.685 21.2233 140.519 21.2814 140.273 21.2814C140.027 21.2814 139.861 21.2233 139.69 20.7969L139.248 19.7063C139.007 19.1128 138.89 18.8088 138.787 18.5183C138.738 18.8607 138.665 19.2218 138.566 19.7063L138.257 21.2098H137.261L138.109 17.4143C138.198 17.0137 138.428 16.8207 138.683 16.8207C138.939 16.8207 139.12 16.9951 139.237 17.2794L139.762 18.4996Z" fill="#808184"/>
<path d="M145.013 21.2109L145.626 20.1006H146.45C146.646 20.1006 146.876 20.1006 147.034 20.1131C146.946 19.9585 146.809 19.6939 146.701 19.4874L146.113 18.345L144.573 21.2109H143.371L145.475 17.3063C145.612 17.0542 145.814 16.8218 146.133 16.8218C146.453 16.8218 146.639 17.0345 146.781 17.3063L148.831 21.2109H145.015H145.013Z" fill="#808184"/>
<path d="M153.799 21.2109H152.441L151.71 20.0685H150.151V21.2109H149.135V19.0039H151.99C152.304 19.0039 152.549 18.8171 152.549 18.5193C152.549 18.1842 152.338 18.0161 151.99 18.0161H149.135L149.797 16.8934H151.907C152.652 16.8934 153.594 17.2036 153.594 18.4363C153.594 19.1076 153.275 19.6628 152.736 19.8049C152.849 19.9149 152.971 20.0695 153.196 20.3725L153.799 21.2119V21.2109Z" fill="#808184"/>
<path d="M158.191 16.8923L157.534 18.015H156.361V21.2098H155.346V18.015H153.807L154.463 16.8923H158.191Z" fill="#808184"/>
<path d="M163.575 19.6036C163.29 18.9385 163.157 18.6158 163.044 18.3066C162.942 18.6168 162.809 18.9323 162.525 19.5974L161.999 20.8239C161.882 21.1009 161.705 21.2825 161.44 21.2825C161.176 21.2825 160.96 21.0884 160.872 20.689L160.037 16.8934H161.053L161.362 18.3969C161.465 18.8814 161.535 19.2363 161.583 19.5849C161.691 19.282 161.819 18.952 162.044 18.3907L162.486 17.3063C162.657 16.8799 162.824 16.8218 163.065 16.8218C163.306 16.8218 163.482 16.8799 163.653 17.3063L164.09 18.3969C164.335 18.9904 164.448 19.2944 164.551 19.5849C164.605 19.2425 164.679 18.8752 164.776 18.3969L165.085 16.8934H166.076L165.228 20.689C165.139 21.0895 164.913 21.2825 164.658 21.2825C164.403 21.2825 164.221 21.1082 164.099 20.8239L163.574 19.6036H163.575Z" fill="#808184"/>
<path d="M167.25 21.2109L167.863 20.1006H168.687C168.883 20.1006 169.113 20.1006 169.271 20.1131C169.183 19.9585 169.046 19.6939 168.938 19.4874L168.35 18.345L166.81 21.2109H165.608L167.713 17.3063C167.85 17.0542 168.051 16.8218 168.37 16.8218C168.69 16.8218 168.876 17.0345 169.018 17.3063L171.068 21.2109H167.252H167.25Z" fill="#808184"/>
<path d="M174.918 16.8923L172.97 19.7842V21.2109H171.95V19.7779L169.949 16.8923H171.253L172.037 18.0929C172.14 18.2475 172.415 18.6417 172.484 18.7704C172.548 18.648 172.66 18.4602 172.895 18.0866L173.64 16.8923H174.916H174.918Z" fill="#808184"/>
<path d="M180.722 16.8923L180.065 18.015H178.064V18.5764H180.535L179.917 19.6285H178.063V21.2098H177.043V16.8913H180.721L180.722 16.8923Z" fill="#808184"/>
<path d="M185.57 19.0485C185.57 20.5914 184.766 21.2814 183.171 21.2814C181.576 21.2814 180.772 20.5904 180.772 19.0485C180.772 17.5066 181.572 16.8218 183.171 16.8218C184.77 16.8218 185.57 17.5056 185.57 19.0485ZM184.559 19.0485C184.559 18.1188 184.191 17.9445 183.171 17.9445C182.151 17.9445 181.783 18.1188 181.783 19.0485C181.783 19.9782 182.151 20.1587 183.171 20.1587C184.191 20.1587 184.559 19.9782 184.559 19.0485Z" fill="#808184"/>
<path d="M190.693 21.2109H189.334L188.604 20.0685H187.044V21.2109H186.029V19.0039H188.883C189.197 19.0039 189.442 18.8171 189.442 18.5193C189.442 18.1842 189.232 18.0161 188.883 18.0161H186.029L186.691 16.8934H188.8C189.545 16.8934 190.487 17.2036 190.487 18.4363C190.487 19.1076 190.169 19.6628 189.629 19.8049C189.742 19.9149 189.865 20.0695 190.09 20.3725L190.693 21.2119V21.2109Z" fill="#808184"/>
<path d="M197.056 19.9523C197.056 20.6682 196.757 21.2109 195.722 21.2109H192.837V18.5836H195.742C195.889 18.5836 196.026 18.5131 196.026 18.2931C196.026 18.0731 195.884 18.0161 195.742 18.0161H192.837L193.524 16.8934H195.697C196.481 16.8934 196.987 17.2939 196.987 18.0877C196.987 18.5971 196.766 18.8814 196.541 18.9914C196.825 19.1014 197.055 19.4366 197.055 19.9533L197.056 19.9523ZM193.858 19.5071V20.1006H195.727C195.948 20.1006 196.041 19.9969 196.041 19.7977C196.041 19.6109 195.948 19.5071 195.727 19.5071H193.858Z" fill="#808184"/>
<path d="M201.33 20.1006L200.678 21.2109H197.519V16.8923H201.321L200.664 18.015H198.54V18.5318H201.139L200.555 19.5133H198.539V20.1006H201.33Z" fill="#808184"/>
<path d="M205.708 16.8923L205.05 18.015H203.878V21.2098H202.863V18.015H201.323L201.98 16.8923H205.708Z" fill="#808184"/>
<path d="M210.045 16.8923L209.387 18.015H208.215V21.2098H207.2V18.015H205.66L206.317 16.8923H210.045Z" fill="#808184"/>
<path d="M214.118 20.1006L213.465 21.2109H210.307V16.8923H214.108L213.452 18.015H211.328V18.5318H213.927L213.343 19.5133H211.327V20.1006H214.118Z" fill="#808184"/>
<path d="M219.072 21.2109H217.714L216.984 20.0685H215.424V21.2109H214.408V19.0039H217.263C217.577 19.0039 217.822 18.8171 217.822 18.5193C217.822 18.1842 217.611 18.0161 217.263 18.0161H214.408L215.07 16.8934H217.18C217.925 16.8934 218.867 17.2036 218.867 18.4363C218.867 19.1076 218.548 19.6628 218.009 19.8049C218.122 19.9149 218.244 20.0695 218.47 20.3725L219.072 21.2119V21.2109Z" fill="#808184"/>
<path d="M224.774 20.1006L224.117 21.2109H221.218V16.8923H222.234V20.1006H224.775H224.774Z" fill="#808184"/>
<path d="M226.095 21.2109H225.079V16.8923H226.095V21.2109Z" fill="#808184"/>
<path d="M230.359 16.8923L229.702 18.015H227.7V18.5764H230.172L229.553 19.6285H227.699V21.2098H226.679V16.8913H230.357L230.359 16.8923Z" fill="#808184"/>
<path d="M234.465 20.1006L233.813 21.2109H230.654V16.8923H234.456L233.799 18.015H231.675V18.5318H234.274L233.69 19.5133H231.674V20.1006H234.465Z" fill="#808184"/>
<path d="M97.3655 12.0757H91.2011V6.33773H94.0628V9.70894H97.3645C98.9468 9.70894 100.089 8.828 100.089 7.50712C100.089 6.18624 98.9064 5.2638 97.3645 5.2638H91.2L93.0158 2.87003H97.3634C100.583 2.87003 102.908 4.72735 102.908 7.38364C102.908 10.0399 100.556 12.0757 97.3634 12.0757H97.3655Z" fill="#808184"/>
<path d="M107.242 12.0757H104.393V2.87003H107.242V12.0747V12.0757Z" fill="#808184"/>
<path d="M116.638 9.72242H111.823V12.0757H108.988V7.37016H116.913C117.794 7.37016 118.302 6.9437 118.302 6.31075C118.302 5.67781 117.793 5.26484 116.913 5.26484H108.988L110.873 2.87106H116.653C119.501 2.87106 121.165 4.27495 121.165 6.32424C121.165 8.37353 119.501 9.72242 116.638 9.72242Z" fill="#808184"/>
<path d="M135.775 7.46562C135.775 10.7549 133.518 12.2272 129.046 12.2272C124.574 12.2272 122.318 10.7549 122.318 7.46562C122.318 4.17638 124.561 2.71854 129.046 2.71854C133.531 2.71854 135.775 4.17742 135.775 7.46562ZM132.941 7.46562C132.941 5.48481 131.909 5.11335 129.047 5.11335C126.185 5.11335 125.153 5.48481 125.153 7.46562C125.153 9.44642 126.185 9.83241 129.047 9.83241C131.909 9.83241 132.941 9.44746 132.941 7.46562Z" fill="#808184"/>
<path d="M151.016 6.54421C153.26 6.54421 154.47 7.38364 154.47 9.0625C154.47 10.9478 153.327 12.0757 150.52 12.0757H141.948L143.778 9.70894H150.74C151.415 9.70894 151.718 9.51698 151.718 9.03449C151.718 8.552 151.415 8.37353 150.74 8.37353H145.732C143.365 8.37353 142.279 7.31412 142.279 5.73176C142.279 3.99791 143.435 2.87003 146.228 2.87003H154.222L152.392 5.2638H146.008C145.348 5.2638 145.03 5.42878 145.03 5.89674C145.03 6.36471 145.347 6.54318 146.008 6.54318H151.016V6.54421Z" fill="#808184"/>
<path d="M166.342 2.87003L164.498 5.2638H161.21V12.0747H158.362V5.2638H154.041L155.885 2.87003H166.342Z" fill="#808184"/>
<path d="M168.197 12.0757L169.918 9.70894H172.229C172.78 9.70894 173.427 9.70894 173.867 9.73695C173.619 9.40699 173.234 8.84253 172.931 8.40258L171.28 5.9673L166.959 12.0768H163.588L169.491 3.752C169.876 3.21555 170.44 2.71957 171.335 2.71957C172.229 2.71957 172.752 3.17405 173.151 3.752L178.902 12.0768H168.197V12.0757Z" fill="#808184"/>
<path d="M192.974 12.0757H189.163L187.113 9.64045H182.737V12.0757H179.889V7.37015H187.897C188.778 7.37015 189.466 6.97067 189.466 6.33773C189.466 5.62281 188.875 5.2638 187.897 5.2638H179.889L181.746 2.87003H187.663C189.755 2.87003 192.396 3.52995 192.396 6.15822C192.396 7.58909 191.502 8.77301 189.988 9.07599C190.305 9.30945 190.649 9.64045 191.281 10.2869L192.973 12.0757H192.974Z" fill="#808184"/>
<path d="M209.578 2.87003L207.734 5.2638H202.121V6.46121H209.055L207.321 8.70453H202.12V12.0757H199.258V2.87003H209.578Z" fill="#808184"/>
<path d="M213.428 12.0757H210.58V2.87003H213.428V12.0747V12.0757Z" fill="#808184"/>
<path d="M223.389 11.7312L217.747 6.66769V12.0757H215.161V4.4389C215.161 3.21452 215.904 2.71854 216.716 2.71854C217.059 2.71854 217.404 2.80155 217.857 3.21348L223.499 8.27703V2.87003H226.099V10.4934C226.099 11.7178 225.356 12.2272 224.53 12.2272C224.172 12.2272 223.828 12.1442 223.388 11.7323L223.389 11.7312Z" fill="#808184"/>
<path d="M231.284 12.0757L233.004 9.70894H235.316C235.867 9.70894 236.514 9.70894 236.954 9.73695C236.706 9.40699 236.321 8.84253 236.018 8.40258L234.367 5.9673L230.046 12.0768H226.675L232.578 3.752C232.963 3.21555 233.527 2.71957 234.422 2.71957C235.316 2.71957 235.839 3.17405 236.238 3.752L241.989 12.0768H231.284V12.0757Z" fill="#808184"/>
<path d="M251.191 11.7312L245.549 6.66769V12.0757H242.962V4.4389C242.962 3.21452 243.705 2.71854 244.518 2.71854C244.861 2.71854 245.206 2.80155 245.659 3.21348L251.301 8.27703V2.87003H253.901V10.4934C253.901 11.7178 253.158 12.2272 252.332 12.2272C251.974 12.2272 251.63 12.1442 251.19 11.7323L251.191 11.7312Z" fill="#808184"/>
<path d="M267.286 9.70894L265.457 12.0757H260.833C257.64 12.0757 255.288 10.0534 255.288 7.38364C255.288 4.71387 257.64 2.87003 260.833 2.87003H267.286L265.457 5.2638H260.833C259.292 5.2638 258.136 6.18624 258.136 7.50712C258.136 8.828 259.279 9.70894 260.833 9.70894H267.286Z" fill="#808184"/>
<path d="M278.965 9.70894L277.135 12.0757H268.274V2.87003H278.937L277.094 5.2638H271.136V6.36471H278.428L276.791 8.45654H271.136V9.70894H278.964H278.965Z" fill="#808184"/>
</g>
<defs>
<clipPath id="clip0_62_136">
<rect width="278.965" height="24" fill="white"/>
</clipPath>
</defs>
</svg>
